<svg width="32" height="30" viewBox="0 0 32 30" fill="none" xmlns="http://www.w3.org/2000/svg">
<path d="M16.9412 30V17.4118C16.9412 16.6321 17.5732 16 18.3529 16C19.1326 16 19.7647 16.6321 19.7647 17.4118V30H16.9412Z" fill="#65E4A3"/>
<path d="M12.2353 30V9.41176C12.2353 8.63207 12.8674 8 13.6471 8C14.4268 8 15.0588 8.63207 15.0588 9.41176V30H12.2353Z" fill="#65E4A3"/>
<path d="M7.52942 30V1.41176C7.52942 0.632069 8.16149 0 8.94118 0C9.72088 0 10.3529 0.632069 10.3529 1.41176V30H7.52942Z" fill="#65E4A3"/>
<path d="M21.6471 30V25.4118C21.6471 24.6321 22.2791 24 23.0588 24C23.8385 24 24.4706 24.6321 24.4706 25.4118V30H21.6471Z" fill="#65E4A3"/>
</svg>
