<svg width="21" height="21" viewBox="0 0 38 35" fill="none" xmlns="http://www.w3.org/2000/svg">
<path d="M36.9467 27.4913C36.9467 28.0673 36.8045 28.6593 36.5024 29.2353C36.2003 29.8113 35.8094 30.3553 35.294 30.8673C34.4233 31.7313 33.4637 32.3553 32.3798 32.7553C31.3136 33.1553 30.1585 33.3633 28.9146 33.3633C27.1021 33.3633 25.1651 32.9793 23.1216 32.1953C21.078 31.4113 19.0345 30.3553 17.0087 29.0273C14.9652 27.6833 13.0282 26.1953 11.1802 24.5473C9.34984 22.8833 7.69723 21.1393 6.22232 19.3153C4.76518 17.4913 3.59236 15.6673 2.7394 13.8593C1.88644 12.0353 1.45996 10.2913 1.45996 8.62728C1.45996 7.53928 1.6732 6.49928 2.09968 5.53928C2.52616 4.56328 3.20142 3.66728 4.14323 2.86728C5.28051 1.85928 6.52441 1.36328 7.83939 1.36328C8.33695 1.36328 8.83451 1.45928 9.27876 1.65128C9.74078 1.84328 10.1495 2.13128 10.4694 2.54728L14.592 7.77928C14.9119 8.17928 15.1429 8.54728 15.3028 8.89928C15.4627 9.23528 15.5516 9.57128 15.5516 9.87528C15.5516 10.2593 15.4272 10.6433 15.1784 11.0113C14.9474 11.3793 14.6098 11.7633 14.1833 12.1473L12.8328 13.4113C12.6373 13.5873 12.5484 13.7953 12.5484 14.0513C12.5484 14.1793 12.5662 14.2913 12.6018 14.4193C12.6551 14.5473 12.7084 14.6433 12.7439 14.7393C13.0638 15.2673 13.6146 15.9553 14.3965 16.7873C15.1962 17.6193 16.0491 18.4673 16.9732 19.3153C17.9328 20.1633 18.8568 20.9473 19.7986 21.6673C20.7226 22.3713 21.4868 22.8513 22.0909 23.1393C22.1798 23.1713 22.2864 23.2193 22.4108 23.2673C22.553 23.3153 22.6951 23.3313 22.855 23.3313C23.1571 23.3313 23.3881 23.2353 23.5836 23.0593L24.9341 21.8593C25.3784 21.4593 25.8049 21.1553 26.2136 20.9633C26.6223 20.7393 27.031 20.6273 27.4752 20.6273C27.8129 20.6273 28.1683 20.6913 28.5592 20.8353C28.9502 20.9793 29.3589 21.1873 29.8031 21.4593L35.685 25.2193C36.147 25.5073 36.4669 25.8433 36.6623 26.2433C36.84 26.6433 36.9467 27.0433 36.9467 27.4913Z" stroke="#3A3A3A" stroke-width="1.5" stroke-miterlimit="10"/>
<path d="M30.7804 12.5634C30.7804 11.6034 29.9452 10.1314 28.7013 8.93138C27.564 7.82738 26.0536 6.96338 24.5609 6.96338" stroke="#3A3A3A" stroke-width="1.5" stroke-linecap="round" stroke-linejoin="round"/>
<path d="M36.9999 12.5633C36.9999 6.37128 31.4379 1.36328 24.5609 1.36328" stroke="#3A3A3A" stroke-width="1.5" stroke-linecap="round" stroke-linejoin="round"/>
</svg>
